<?xml version="1.0" encoding="UTF-8" standalone="no"?>
<!DOCTYPE svg PUBLIC "-//W3C//DTD SVG 1.1//EN"
 "http://www.w3.org/Graphics/SVG/1.1/DTD/svg11.dtd">
<!-- Generated by graphviz version 2.38.0 (20140413.2041)
 -->
<!-- Title: %3 Pages: 1 -->
<svg width="329pt" height="260pt"
 viewBox="0.00 0.00 329.00 260.00" xmlns="http://www.w3.org/2000/svg" xmlns:xlink="http://www.w3.org/1999/xlink">
<g id="graph0" class="graph" transform="scale(1 1) rotate(0) translate(4 256)">
<title>%3</title>
<polygon fill="white" stroke="none" points="-4,4 -4,-256 325,-256 325,4 -4,4"/>
<!-- e1 -->
<g id="node1" class="node"><title>e1</title>
<polygon fill="none" stroke="black" points="145,-252 91,-252 91,-216 145,-216 145,-252"/>
<text text-anchor="middle" x="118" y="-230.3" font-family="Times,serif" font-size="14.00">E</text>
</g>
<!-- e2 -->
<g id="node2" class="node"><title>e2</title>
<polygon fill="none" stroke="black" points="59,-180 5,-180 5,-144 59,-144 59,-180"/>
<text text-anchor="middle" x="32" y="-158.3" font-family="Times,serif" font-size="14.00">E</text>
</g>
<!-- e1&#45;&#45;e2 -->
<g id="edge1" class="edge"><title>e1&#45;&#45;e2</title>
<path fill="none" stroke="black" d="M96.7416,-215.697C83.4112,-204.846 66.2977,-190.917 53.0139,-180.104"/>
</g>
<!-- plus1 -->
<g id="node3" class="node"><title>plus1</title>
<polygon fill="none" stroke="black" points="159,-180 77,-180 77,-144 159,-144 159,-180"/>
<text text-anchor="start" x="85" y="-159.3" font-family="Times,serif" font-style="italic" font-size="14.00">Plus</text>
<text text-anchor="start" x="110" y="-159.3" font-family="Times,serif" font-style="italic" baseline-shift="sub" font-size="14.00">t</text>
<text text-anchor="start" x="114" y="-159.3" font-family="Times,serif" font-size="14.00">(&quot; + &quot;)</text>
</g>
<!-- e1&#45;&#45;plus1 -->
<g id="edge2" class="edge"><title>e1&#45;&#45;plus1</title>
<path fill="none" stroke="black" d="M118,-215.697C118,-204.846 118,-190.917 118,-180.104"/>
</g>
<!-- e3 -->
<g id="node4" class="node"><title>e3</title>
<polygon fill="none" stroke="black" points="231,-180 177,-180 177,-144 231,-144 231,-180"/>
<text text-anchor="middle" x="204" y="-158.3" font-family="Times,serif" font-size="14.00">E</text>
</g>
<!-- e1&#45;&#45;e3 -->
<g id="edge3" class="edge"><title>e1&#45;&#45;e3</title>
<path fill="none" stroke="black" d="M139.258,-215.697C152.589,-204.846 169.702,-190.917 182.986,-180.104"/>
</g>
<!-- int1 -->
<g id="node5" class="node"><title>int1</title>
<polygon fill="none" stroke="black" points="64,-108 0,-108 0,-72 64,-72 64,-108"/>
<text text-anchor="start" x="8" y="-87.3" font-family="Times,serif" font-style="italic" font-size="14.00">Int</text>
<text text-anchor="start" x="24" y="-87.3" font-family="Times,serif" font-style="italic" baseline-shift="sub" font-size="14.00">t</text>
<text text-anchor="start" x="28" y="-87.3" font-family="Times,serif" font-size="14.00">(&quot;1&quot;)</text>
</g>
<!-- e2&#45;&#45;int1 -->
<g id="edge4" class="edge"><title>e2&#45;&#45;int1</title>
<path fill="none" stroke="black" d="M32,-143.697C32,-132.846 32,-118.917 32,-108.104"/>
</g>
<!-- e4 -->
<g id="node6" class="node"><title>e4</title>
<polygon fill="none" stroke="black" points="146,-108 92,-108 92,-72 146,-72 146,-108"/>
<text text-anchor="middle" x="119" y="-86.3" font-family="Times,serif" font-size="14.00">E</text>
</g>
<!-- e3&#45;&#45;e4 -->
<g id="edge5" class="edge"><title>e3&#45;&#45;e4</title>
<path fill="none" stroke="black" d="M182.989,-143.697C169.813,-132.846 152.899,-118.917 139.77,-108.104"/>
</g>
<!-- star1 -->
<g id="node7" class="node"><title>star1</title>
<polygon fill="none" stroke="black" points="243.5,-108 164.5,-108 164.5,-72 243.5,-72 243.5,-108"/>
<text text-anchor="start" x="172.5" y="-87.3" font-family="Times,serif" font-style="italic" font-size="14.00">Star</text>
<text text-anchor="start" x="195.5" y="-87.3" font-family="Times,serif" font-style="italic" baseline-shift="sub" font-size="14.00">t</text>
<text text-anchor="start" x="199.5" y="-87.3" font-family="Times,serif" font-size="14.00">(&quot; * &quot;)</text>
</g>
<!-- e3&#45;&#45;star1 -->
<g id="edge6" class="edge"><title>e3&#45;&#45;star1</title>
<path fill="none" stroke="black" d="M204,-143.697C204,-132.846 204,-118.917 204,-108.104"/>
</g>
<!-- e5 -->
<g id="node8" class="node"><title>e5</title>
<polygon fill="none" stroke="black" points="316,-108 262,-108 262,-72 316,-72 316,-108"/>
<text text-anchor="middle" x="289" y="-86.3" font-family="Times,serif" font-size="14.00">E</text>
</g>
<!-- e3&#45;&#45;e5 -->
<g id="edge7" class="edge"><title>e3&#45;&#45;e5</title>
<path fill="none" stroke="black" d="M225.011,-143.697C238.187,-132.846 255.101,-118.917 268.23,-108.104"/>
</g>
<!-- int2 -->
<g id="node9" class="node"><title>int2</title>
<polygon fill="none" stroke="black" points="151,-36 87,-36 87,-0 151,-0 151,-36"/>
<text text-anchor="start" x="95" y="-15.3" font-family="Times,serif" font-style="italic" font-size="14.00">Int</text>
<text text-anchor="start" x="111" y="-15.3" font-family="Times,serif" font-style="italic" baseline-shift="sub" font-size="14.00">t</text>
<text text-anchor="start" x="115" y="-15.3" font-family="Times,serif" font-size="14.00">(&quot;2&quot;)</text>
</g>
<!-- e4&#45;&#45;int2 -->
<g id="edge8" class="edge"><title>e4&#45;&#45;int2</title>
<path fill="none" stroke="black" d="M119,-71.6966C119,-60.8463 119,-46.9167 119,-36.1043"/>
</g>
<!-- int3 -->
<g id="node10" class="node"><title>int3</title>
<polygon fill="none" stroke="black" points="321,-36 257,-36 257,-0 321,-0 321,-36"/>
<text text-anchor="start" x="265" y="-15.3" font-family="Times,serif" font-style="italic" font-size="14.00">Int</text>
<text text-anchor="start" x="281" y="-15.3" font-family="Times,serif" font-style="italic" baseline-shift="sub" font-size="14.00">t</text>
<text text-anchor="start" x="285" y="-15.3" font-family="Times,serif" font-size="14.00">(&quot;3&quot;)</text>
</g>
<!-- e5&#45;&#45;int3 -->
<g id="edge9" class="edge"><title>e5&#45;&#45;int3</title>
<path fill="none" stroke="black" d="M289,-71.6966C289,-60.8463 289,-46.9167 289,-36.1043"/>
</g>
</g>
</svg>
