<?xml version="1.0" encoding="UTF-8" standalone="no"?>
<!DOCTYPE svg PUBLIC "-//W3C//DTD SVG 1.1//EN"
 "http://www.w3.org/Graphics/SVG/1.1/DTD/svg11.dtd">
<!-- Generated by graphviz version 2.38.0 (20140413.2041)
 -->
<!-- Title: %3 Pages: 1 -->
<svg width="328pt" height="260pt"
 viewBox="0.00 0.00 328.00 260.00" xmlns="http://www.w3.org/2000/svg" xmlns:xlink="http://www.w3.org/1999/xlink">
<g id="graph0" class="graph" transform="scale(1 1) rotate(0) translate(4 256)">
<title>%3</title>
<polygon fill="white" stroke="none" points="-4,4 -4,-256 324,-256 324,4 -4,4"/>
<!-- e1 -->
<g id="node1" class="node"><title>e1</title>
<polygon fill="none" stroke="black" points="230,-252 176,-252 176,-216 230,-216 230,-252"/>
<text text-anchor="middle" x="203" y="-230.3" font-family="Times,serif" font-size="14.00">E</text>
</g>
<!-- e2 -->
<g id="node2" class="node"><title>e2</title>
<polygon fill="none" stroke="black" points="145,-180 91,-180 91,-144 145,-144 145,-180"/>
<text text-anchor="middle" x="118" y="-158.3" font-family="Times,serif" font-size="14.00">E</text>
</g>
<!-- e1&#45;&#45;e2 -->
<g id="edge1" class="edge"><title>e1&#45;&#45;e2</title>
<path fill="none" stroke="black" d="M181.989,-215.697C168.813,-204.846 151.899,-190.917 138.77,-180.104"/>
</g>
<!-- star1 -->
<g id="node3" class="node"><title>star1</title>
<polygon fill="none" stroke="black" points="242.5,-180 163.5,-180 163.5,-144 242.5,-144 242.5,-180"/>
<text text-anchor="start" x="171.5" y="-159.3" font-family="Times,serif" font-style="italic" font-size="14.00">Star</text>
<text text-anchor="start" x="194.5" y="-159.3" font-family="Times,serif" font-style="italic" baseline-shift="sub" font-size="14.00">t</text>
<text text-anchor="start" x="198.5" y="-159.3" font-family="Times,serif" font-size="14.00">(&quot; * &quot;)</text>
</g>
<!-- e1&#45;&#45;star1 -->
<g id="edge2" class="edge"><title>e1&#45;&#45;star1</title>
<path fill="none" stroke="black" d="M203,-215.697C203,-204.846 203,-190.917 203,-180.104"/>
</g>
<!-- e3 -->
<g id="node4" class="node"><title>e3</title>
<polygon fill="none" stroke="black" points="315,-180 261,-180 261,-144 315,-144 315,-180"/>
<text text-anchor="middle" x="288" y="-158.3" font-family="Times,serif" font-size="14.00">E</text>
</g>
<!-- e1&#45;&#45;e3 -->
<g id="edge3" class="edge"><title>e1&#45;&#45;e3</title>
<path fill="none" stroke="black" d="M224.011,-215.697C237.187,-204.846 254.101,-190.917 267.23,-180.104"/>
</g>
<!-- e4 -->
<g id="node5" class="node"><title>e4</title>
<polygon fill="none" stroke="black" points="59,-108 5,-108 5,-72 59,-72 59,-108"/>
<text text-anchor="middle" x="32" y="-86.3" font-family="Times,serif" font-size="14.00">E</text>
</g>
<!-- e2&#45;&#45;e4 -->
<g id="edge4" class="edge"><title>e2&#45;&#45;e4</title>
<path fill="none" stroke="black" d="M96.7416,-143.697C83.4112,-132.846 66.2977,-118.917 53.0139,-108.104"/>
</g>
<!-- plus1 -->
<g id="node6" class="node"><title>plus1</title>
<polygon fill="none" stroke="black" points="159,-108 77,-108 77,-72 159,-72 159,-108"/>
<text text-anchor="start" x="85" y="-87.3" font-family="Times,serif" font-style="italic" font-size="14.00">Plus</text>
<text text-anchor="start" x="110" y="-87.3" font-family="Times,serif" font-style="italic" baseline-shift="sub" font-size="14.00">t</text>
<text text-anchor="start" x="114" y="-87.3" font-family="Times,serif" font-size="14.00">(&quot; + &quot;)</text>
</g>
<!-- e2&#45;&#45;plus1 -->
<g id="edge5" class="edge"><title>e2&#45;&#45;plus1</title>
<path fill="none" stroke="black" d="M118,-143.697C118,-132.846 118,-118.917 118,-108.104"/>
</g>
<!-- e5 -->
<g id="node7" class="node"><title>e5</title>
<polygon fill="none" stroke="black" points="231,-108 177,-108 177,-72 231,-72 231,-108"/>
<text text-anchor="middle" x="204" y="-86.3" font-family="Times,serif" font-size="14.00">E</text>
</g>
<!-- e2&#45;&#45;e5 -->
<g id="edge6" class="edge"><title>e2&#45;&#45;e5</title>
<path fill="none" stroke="black" d="M139.258,-143.697C152.589,-132.846 169.702,-118.917 182.986,-108.104"/>
</g>
<!-- int3 -->
<g id="node9" class="node"><title>int3</title>
<polygon fill="none" stroke="black" points="320,-108 256,-108 256,-72 320,-72 320,-108"/>
<text text-anchor="start" x="264" y="-87.3" font-family="Times,serif" font-style="italic" font-size="14.00">Int</text>
<text text-anchor="start" x="280" y="-87.3" font-family="Times,serif" font-style="italic" baseline-shift="sub" font-size="14.00">t</text>
<text text-anchor="start" x="284" y="-87.3" font-family="Times,serif" font-size="14.00">(&quot;3&quot;)</text>
</g>
<!-- e3&#45;&#45;int3 -->
<g id="edge7" class="edge"><title>e3&#45;&#45;int3</title>
<path fill="none" stroke="black" d="M288,-143.697C288,-132.846 288,-118.917 288,-108.104"/>
</g>
<!-- int1 -->
<g id="node8" class="node"><title>int1</title>
<polygon fill="none" stroke="black" points="64,-36 0,-36 0,-0 64,-0 64,-36"/>
<text text-anchor="start" x="8" y="-15.3" font-family="Times,serif" font-style="italic" font-size="14.00">Int</text>
<text text-anchor="start" x="24" y="-15.3" font-family="Times,serif" font-style="italic" baseline-shift="sub" font-size="14.00">t</text>
<text text-anchor="start" x="28" y="-15.3" font-family="Times,serif" font-size="14.00">(&quot;1&quot;)</text>
</g>
<!-- e4&#45;&#45;int1 -->
<g id="edge8" class="edge"><title>e4&#45;&#45;int1</title>
<path fill="none" stroke="black" d="M32,-71.6966C32,-60.8463 32,-46.9167 32,-36.1043"/>
</g>
<!-- int2 -->
<g id="node10" class="node"><title>int2</title>
<polygon fill="none" stroke="black" points="236,-36 172,-36 172,-0 236,-0 236,-36"/>
<text text-anchor="start" x="180" y="-15.3" font-family="Times,serif" font-style="italic" font-size="14.00">Int</text>
<text text-anchor="start" x="196" y="-15.3" font-family="Times,serif" font-style="italic" baseline-shift="sub" font-size="14.00">t</text>
<text text-anchor="start" x="200" y="-15.3" font-family="Times,serif" font-size="14.00">(&quot;2&quot;)</text>
</g>
<!-- e5&#45;&#45;int2 -->
<g id="edge9" class="edge"><title>e5&#45;&#45;int2</title>
<path fill="none" stroke="black" d="M204,-71.6966C204,-60.8463 204,-46.9167 204,-36.1043"/>
</g>
</g>
</svg>
